<!-- Created with Inkscape (http://www.inkscape.org/) -->

<svg
   width="402.99246mm"
   height="104.90818mm"
   viewBox="0 0 402.99246 104.90818"
   version="1.1"
   id="svg765"
   inkscape:version="1.2 (dc2aedaf03, 2022-05-15)"
   sodipodi:docname="Logo CFL Luxembourg (2022).svg"
   xmlns:inkscape="http://www.inkscape.org/namespaces/inkscape"
   xmlns:sodipodi="http://sodipodi.sourceforge.net/DTD/sodipodi-0.dtd"
   xmlns="http://www.w3.org/2000/svg"
   xmlns:svg="http://www.w3.org/2000/svg">
  <sodipodi:namedview
     id="namedview767"
     pagecolor="#ffffff"
     bordercolor="#666666"
     borderopacity="1.0"
     inkscape:showpageshadow="2"
     inkscape:pageopacity="0.0"
     inkscape:pagecheckerboard="0"
     inkscape:deskcolor="#d1d1d1"
     inkscape:document-units="mm"
     showgrid="false"
     inkscape:zoom="0.2102413"
     inkscape:cx="2987.0439"
     inkscape:cy="1227.1614"
     inkscape:window-width="1680"
     inkscape:window-height="979"
     inkscape:window-x="-8"
     inkscape:window-y="-8"
     inkscape:window-maximized="1"
     inkscape:current-layer="layer1" />
  <defs
     id="defs762" />
  <g
     inkscape:label="Calque 1"
     inkscape:groupmode="layer"
     id="layer1"
     transform="translate(685.37971,175.55983)">
    <path
       fill-rule="nonzero"
       fill="#ffffff"
       fill-opacity="1"
       d="m -408.46071,-141.30974 h -102.15373 l -46.27892,70.658093 h 41.84846 l 32.09233,-48.666393 h 34.1583 c 16.29871,0 31.49546,-8.28704 40.33356,-21.9917"
       id="path429"
       style="stroke-width:5.8767" />
    <path
       fill-rule="nonzero"
       fill="#ffffff"
       fill-opacity="1"
       d="m -387.96127,-92.643346 53.48716,-82.916484 h -41.82548 l -67.67391,104.908183 h 121.25286 c 16.29871,0 31.49546,-8.287034 40.33339,-21.991699 z m 0,0"
       id="path431"
       style="stroke-width:5.8767" />
    <path
       fill-rule="nonzero"
       fill="#ffffff"
       fill-opacity="1"
       d="m -642.28911,-92.643346 39.3004,-60.924784 h 175.56628 c 16.3217,0 31.49547,-8.28703 40.35655,-21.9917 h -226.89569 c -10.39898,0 -20.08648,5.27987 -25.7335,14.02601 l -43.18013,66.985257 c -6.65718,10.307193 0.73463,23.896916 13.01601,23.896916 h 102.38311 l 14.18676,-21.991699 z m 0,0"
       id="path433"
       style="stroke-width:5.8767" />
  </g>
</svg>
